<svg width="40" height="40" viewBox="0 0 40 40" fill="none" xmlns="http://www.w3.org/2000/svg">
<g clip-path="url(#clip0_242_19)">
<path d="M29.9998 9.99998H26.6665C26.6665 6.31665 23.6832 3.33331 19.9998 3.33331C16.3165 3.33331 13.3332 6.31665 13.3332 9.99998H9.99984C8.1665 9.99998 6.6665 11.5 6.6665 13.3333V33.3333C6.6665 35.1666 8.1665 36.6666 9.99984 36.6666H29.9998C31.8332 36.6666 33.3332 35.1666 33.3332 33.3333V13.3333C33.3332 11.5 31.8332 9.99998 29.9998 9.99998ZM19.9998 6.66665C21.8332 6.66665 23.3332 8.16665 23.3332 9.99998H16.6665C16.6665 8.16665 18.1665 6.66665 19.9998 6.66665ZM29.9998 33.3333H9.99984V13.3333H13.3332V16.6666C13.3332 17.5833 14.0832 18.3333 14.9998 18.3333C15.9165 18.3333 16.6665 17.5833 16.6665 16.6666V13.3333H23.3332V16.6666C23.3332 17.5833 24.0832 18.3333 24.9998 18.3333C25.9165 18.3333 26.6665 17.5833 26.6665 16.6666V13.3333H29.9998V33.3333Z" fill="#7C7A7A"/>
</g>
<defs>
<clipPath id="clip0_242_19">
<rect width="40" height="40" fill="white"/>
</clipPath>
</defs>
</svg>
