<svg width="960" height="269" viewBox="0 0 960 269" fill="none" xmlns="http://www.w3.org/2000/svg">
<g filter="url(#filter0_d_18_42)">
<path fill-rule="evenodd" clip-rule="evenodd" d="M531.984 -163C607.681 -163.074 675.465 -147.352 740.967 -133.973C802.638 -121.377 852.65 -103.955 904.846 -86.8426C960.704 -68.5296 1017.62 -51.1965 1060.96 -29.0653C1112.68 -2.65645 1184.6 23.613 1184 55.7057C1183.4 87.4092 1117.65 114.931 1057.78 138.585C1002.32 160.499 916.668 168.347 852.03 186.872C783.542 206.5 746.27 239.637 664.459 251.31C581.66 263.125 479.736 265.238 399.422 251.454C317.847 237.454 295.104 200.109 232.069 177.102C180.092 158.13 99.753 149.977 60.112 127.607C20.2058 105.087 14.6765 77.4077 8.51075 50.9418C2.42456 24.8173 -1.50354 -2.04143 24.1773 -26.64C49.5779 -50.9702 102.387 -70.0054 154.041 -88.4559C204.315 -106.413 261.065 -121.244 323.519 -133.563C389.569 -146.59 456.304 -162.925 531.984 -163Z" fill="url(#paint0_linear_18_42)"/>
</g>
<defs>
<filter id="filter0_d_18_42" x="0" y="-163" width="1188" height="432" filterUnits="userSpaceOnUse" color-interpolation-filters="sRGB">
<feFlood flood-opacity="0" result="BackgroundImageFix"/>
<feColorMatrix in="SourceAlpha" type="matrix" values="0 0 0 0 0 0 0 0 0 0 0 0 0 0 0 0 0 0 127 0" result="hardAlpha"/>
<feOffset dy="4"/>
<feGaussianBlur stdDeviation="2"/>
<feComposite in2="hardAlpha" operator="out"/>
<feColorMatrix type="matrix" values="0 0 0 0 0 0 0 0 0 0 0 0 0 0 0 0 0 0 0.25 0"/>
<feBlend mode="normal" in2="BackgroundImageFix" result="effect1_dropShadow_18_42"/>
<feBlend mode="normal" in="SourceGraphic" in2="effect1_dropShadow_18_42" result="shape"/>
</filter>
<linearGradient id="paint0_linear_18_42" x1="291.874" y1="231.715" x2="400.838" y2="-80.7182" gradientUnits="userSpaceOnUse">
<stop offset="0.157914" stop-color="#8897AA"/>
<stop offset="0.94825" stop-color="#D1E8EE"/>
</linearGradient>
</defs>
</svg>
