<svg width="35" height="35" viewBox="0 0 35 35" fill="none" xmlns="http://www.w3.org/2000/svg">
<path d="M17.5 35C19.9062 35 21.875 33.3846 21.875 31.4103H13.125C13.125 33.3846 15.0938 35 17.5 35ZM30.625 24.2308V15.2564C30.625 9.74615 27.0594 5.13333 20.7812 3.91282V2.69231C20.7812 1.20256 19.3156 0 17.5 0C15.6844 0 14.2188 1.20256 14.2188 2.69231V3.91282C7.9625 5.13333 4.375 9.72821 4.375 15.2564V24.2308L0 27.8205V29.6154H35V27.8205L30.625 24.2308ZM26.25 26.0256H8.75V15.2564C8.75 10.8051 12.0531 7.17949 17.5 7.17949C22.9469 7.17949 26.25 10.8051 26.25 15.2564V26.0256Z" fill="#7C7A7A"/>
</svg>
