<svg width="294" height="159" viewBox="0 0 294 159" fill="none" xmlns="http://www.w3.org/2000/svg">
<rect y="1" width="294" height="158" rx="30" fill="#C8C7D7"/>
<path d="M0 30C0 13.4315 13.4315 0 30 0H100V50C100 77.6142 77.6142 100 50 100H0V30Z" fill="#F4EDE5"/>
<path d="M151.896 35.696L143.48 58H140.12L131.704 35.696H134.808L141.816 54.928L148.824 35.696H151.896ZM162.737 58.288C161.094 58.288 159.601 57.9147 158.257 57.168C156.934 56.4213 155.889 55.3653 155.121 54C154.374 52.6133 154.001 51.0133 154.001 49.2C154.001 47.408 154.385 45.8293 155.153 44.464C155.942 43.0773 157.009 42.0213 158.353 41.296C159.697 40.5493 161.201 40.176 162.865 40.176C164.529 40.176 166.033 40.5493 167.377 41.296C168.721 42.0213 169.777 43.0667 170.545 44.432C171.334 45.7973 171.729 47.3867 171.729 49.2C171.729 51.0133 171.324 52.6133 170.513 54C169.724 55.3653 168.646 56.4213 167.281 57.168C165.916 57.9147 164.401 58.288 162.737 58.288ZM162.737 55.728C163.782 55.728 164.764 55.4827 165.681 54.992C166.598 54.5013 167.334 53.7653 167.889 52.784C168.465 51.8027 168.753 50.608 168.753 49.2C168.753 47.792 168.476 46.5973 167.921 45.616C167.366 44.6347 166.641 43.9093 165.745 43.44C164.849 42.9493 163.878 42.704 162.833 42.704C161.766 42.704 160.785 42.9493 159.889 43.44C159.014 43.9093 158.31 44.6347 157.777 45.616C157.244 46.5973 156.977 47.792 156.977 49.2C156.977 50.6293 157.233 51.8347 157.745 52.816C158.278 53.7973 158.982 54.5333 159.857 55.024C160.732 55.4933 161.692 55.728 162.737 55.728ZM191.11 40.464V58H188.198V55.408C187.643 56.304 186.864 57.008 185.862 57.52C184.88 58.0107 183.792 58.256 182.598 58.256C181.232 58.256 180.006 57.9787 178.918 57.424C177.83 56.848 176.966 55.9947 176.326 54.864C175.707 53.7333 175.398 52.3573 175.398 50.736V40.464H178.278V50.352C178.278 52.08 178.715 53.4133 179.59 54.352C180.464 55.2693 181.659 55.728 183.174 55.728C184.731 55.728 185.958 55.248 186.854 54.288C187.75 53.328 188.198 51.9307 188.198 50.096V40.464H191.11ZM194.939 49.2C194.939 47.3867 195.301 45.808 196.027 44.464C196.752 43.0987 197.755 42.0427 199.035 41.296C200.336 40.5493 201.819 40.176 203.483 40.176C205.637 40.176 207.408 40.6987 208.795 41.744C210.203 42.7893 211.131 44.24 211.579 46.096H208.443C208.144 45.0293 207.557 44.1867 206.683 43.568C205.829 42.9493 204.763 42.64 203.483 42.64C201.819 42.64 200.475 43.216 199.451 44.368C198.427 45.4987 197.915 47.1093 197.915 49.2C197.915 51.312 198.427 52.944 199.451 54.096C200.475 55.248 201.819 55.824 203.483 55.824C204.763 55.824 205.829 55.5253 206.683 54.928C207.536 54.3307 208.123 53.4773 208.443 52.368H211.579C211.109 54.16 210.171 55.6 208.763 56.688C207.355 57.7547 205.595 58.288 203.483 58.288C201.819 58.288 200.336 57.9147 199.035 57.168C197.755 56.4213 196.752 55.3653 196.027 54C195.301 52.6347 194.939 51.0347 194.939 49.2ZM224.168 40.144C225.491 40.144 226.685 40.432 227.752 41.008C228.819 41.5627 229.651 42.4053 230.248 43.536C230.867 44.6667 231.176 46.0427 231.176 47.664V58H228.296V48.08C228.296 46.3307 227.859 44.9973 226.984 44.08C226.109 43.1413 224.915 42.672 223.4 42.672C221.864 42.672 220.637 43.152 219.72 44.112C218.824 45.072 218.376 46.4693 218.376 48.304V58H215.464V34.32H218.376V42.96C218.952 42.064 219.741 41.3707 220.744 40.88C221.768 40.3893 222.909 40.144 224.168 40.144ZM251.933 48.56C251.933 49.1147 251.901 49.7013 251.837 50.32H237.821C237.927 52.048 238.514 53.4027 239.581 54.384C240.669 55.344 241.981 55.824 243.517 55.824C244.775 55.824 245.821 55.536 246.653 54.96C247.506 54.3627 248.103 53.5733 248.445 52.592H251.581C251.111 54.2773 250.173 55.6533 248.765 56.72C247.357 57.7653 245.607 58.288 243.517 58.288C241.853 58.288 240.359 57.9147 239.037 57.168C237.735 56.4213 236.711 55.3653 235.965 54C235.218 52.6133 234.845 51.0133 234.845 49.2C234.845 47.3867 235.207 45.7973 235.933 44.432C236.658 43.0667 237.671 42.0213 238.973 41.296C240.295 40.5493 241.81 40.176 243.517 40.176C245.181 40.176 246.653 40.5387 247.933 41.264C249.213 41.9893 250.194 42.992 250.877 44.272C251.581 45.5307 251.933 46.96 251.933 48.56ZM248.925 47.952C248.925 46.8427 248.679 45.8933 248.189 45.104C247.698 44.2933 247.026 43.6853 246.173 43.28C245.341 42.8533 244.413 42.64 243.389 42.64C241.917 42.64 240.658 43.1093 239.613 44.048C238.589 44.9867 238.002 46.288 237.853 47.952H248.925ZM258.689 43.312C259.201 42.3093 259.926 41.5307 260.865 40.976C261.825 40.4213 262.987 40.144 264.353 40.144V43.152H263.585C260.321 43.152 258.689 44.9227 258.689 48.464V58H255.777V40.464H258.689V43.312Z" fill="black"/>
<path d="M52.78 114.18C52.084 112.716 51.076 111.588 49.756 110.796C48.436 109.98 46.9 109.572 45.148 109.572C43.396 109.572 41.812 109.98 40.396 110.796C39.004 111.588 37.9 112.74 37.084 114.252C36.292 115.74 35.896 117.468 35.896 119.436C35.896 121.404 36.292 123.132 37.084 124.62C37.9 126.108 39.004 127.26 40.396 128.076C41.812 128.868 43.396 129.264 45.148 129.264C47.596 129.264 49.612 128.532 51.196 127.068C52.78 125.604 53.704 123.624 53.968 121.128H43.96V118.464H57.46V120.984C57.268 123.048 56.62 124.944 55.516 126.672C54.412 128.376 52.96 129.732 51.16 130.74C49.36 131.724 47.356 132.216 45.148 132.216C42.82 132.216 40.696 131.676 38.776 130.596C36.856 129.492 35.332 127.968 34.204 126.024C33.1 124.08 32.548 121.884 32.548 119.436C32.548 116.988 33.1 114.792 34.204 112.848C35.332 110.88 36.856 109.356 38.776 108.276C40.696 107.172 42.82 106.62 45.148 106.62C47.812 106.62 50.164 107.28 52.204 108.6C54.268 109.92 55.768 111.78 56.704 114.18H52.78ZM65.0675 115.476C65.6435 114.348 66.4595 113.472 67.5155 112.848C68.5955 112.224 69.9035 111.912 71.4395 111.912V115.296H70.5755C66.9035 115.296 65.0675 117.288 65.0675 121.272V132H61.7915V112.272H65.0675V115.476ZM73.9972 122.064C73.9972 120.048 74.4052 118.284 75.2212 116.772C76.0372 115.236 77.1532 114.048 78.5692 113.208C80.0092 112.368 81.6052 111.948 83.3572 111.948C85.0852 111.948 86.5852 112.32 87.8572 113.064C89.1292 113.808 90.0772 114.744 90.7012 115.872V112.272H94.0132V132H90.7012V128.328C90.0532 129.48 89.0812 130.44 87.7852 131.208C86.5132 131.952 85.0252 132.324 83.3212 132.324C81.5692 132.324 79.9852 131.892 78.5692 131.028C77.1532 130.164 76.0372 128.952 75.2212 127.392C74.4052 125.832 73.9972 124.056 73.9972 122.064ZM90.7012 122.1C90.7012 120.612 90.4012 119.316 89.8012 118.212C89.2012 117.108 88.3852 116.268 87.3532 115.692C86.3452 115.092 85.2292 114.792 84.0052 114.792C82.7812 114.792 81.6652 115.08 80.6572 115.656C79.6492 116.232 78.8452 117.072 78.2452 118.176C77.6452 119.28 77.3452 120.576 77.3452 122.064C77.3452 123.576 77.6452 124.896 78.2452 126.024C78.8452 127.128 79.6492 127.98 80.6572 128.58C81.6652 129.156 82.7812 129.444 84.0052 129.444C85.2292 129.444 86.3452 129.156 87.3532 128.58C88.3852 127.98 89.2012 127.128 89.8012 126.024C90.4012 124.896 90.7012 123.588 90.7012 122.1ZM103.545 114.972V126.6C103.545 127.56 103.749 128.244 104.157 128.652C104.565 129.036 105.273 129.228 106.281 129.228H108.693V132H105.741C103.917 132 102.549 131.58 101.637 130.74C100.725 129.9 100.269 128.52 100.269 126.6V114.972H97.7133V112.272H100.269V107.304H103.545V112.272H108.693V114.972H103.545ZM114.355 109.068C113.731 109.068 113.203 108.852 112.771 108.42C112.339 107.988 112.123 107.46 112.123 106.836C112.123 106.212 112.339 105.684 112.771 105.252C113.203 104.82 113.731 104.604 114.355 104.604C114.955 104.604 115.459 104.82 115.867 105.252C116.299 105.684 116.515 106.212 116.515 106.836C116.515 107.46 116.299 107.988 115.867 108.42C115.459 108.852 114.955 109.068 114.355 109.068ZM115.939 112.272V132H112.663V112.272H115.939ZM128.506 132.324C126.994 132.324 125.638 132.072 124.438 131.568C123.238 131.04 122.29 130.32 121.594 129.408C120.898 128.472 120.514 127.404 120.442 126.204H123.826C123.922 127.188 124.378 127.992 125.194 128.616C126.034 129.24 127.126 129.552 128.47 129.552C129.718 129.552 130.702 129.276 131.422 128.724C132.142 128.172 132.502 127.476 132.502 126.636C132.502 125.772 132.118 125.136 131.35 124.728C130.582 124.296 129.394 123.876 127.786 123.468C126.322 123.084 125.122 122.7 124.186 122.316C123.274 121.908 122.482 121.32 121.81 120.552C121.162 119.76 120.838 118.728 120.838 117.456C120.838 116.448 121.138 115.524 121.738 114.684C122.338 113.844 123.19 113.184 124.294 112.704C125.398 112.2 126.658 111.948 128.074 111.948C130.258 111.948 132.022 112.5 133.366 113.604C134.71 114.708 135.43 116.22 135.526 118.14H132.25C132.178 117.108 131.758 116.28 130.99 115.656C130.246 115.032 129.238 114.72 127.966 114.72C126.79 114.72 125.854 114.972 125.158 115.476C124.462 115.98 124.114 116.64 124.114 117.456C124.114 118.104 124.318 118.644 124.726 119.076C125.158 119.484 125.686 119.82 126.31 120.084C126.958 120.324 127.846 120.6 128.974 120.912C130.39 121.296 131.542 121.68 132.43 122.064C133.318 122.424 134.074 122.976 134.698 123.72C135.346 124.464 135.682 125.436 135.706 126.636C135.706 127.716 135.406 128.688 134.806 129.552C134.206 130.416 133.354 131.1 132.25 131.604C131.17 132.084 129.922 132.324 128.506 132.324ZM161.304 132.252C158.976 132.252 156.852 131.712 154.932 130.632C153.012 129.528 151.488 128.004 150.36 126.06C149.256 124.092 148.704 121.884 148.704 119.436C148.704 116.988 149.256 114.792 150.36 112.848C151.488 110.88 153.012 109.356 154.932 108.276C156.852 107.172 158.976 106.62 161.304 106.62C163.656 106.62 165.792 107.172 167.712 108.276C169.632 109.356 171.144 110.868 172.248 112.812C173.352 114.756 173.904 116.964 173.904 119.436C173.904 121.908 173.352 124.116 172.248 126.06C171.144 128.004 169.632 129.528 167.712 130.632C165.792 131.712 163.656 132.252 161.304 132.252ZM161.304 129.408C163.056 129.408 164.628 129 166.02 128.184C167.436 127.368 168.54 126.204 169.332 124.692C170.148 123.18 170.556 121.428 170.556 119.436C170.556 117.42 170.148 115.668 169.332 114.18C168.54 112.668 167.448 111.504 166.056 110.688C164.664 109.872 163.08 109.464 161.304 109.464C159.528 109.464 157.944 109.872 156.552 110.688C155.16 111.504 154.056 112.668 153.24 114.18C152.448 115.668 152.052 117.42 152.052 119.436C152.052 121.428 152.448 123.18 153.24 124.692C154.056 126.204 155.16 127.368 156.552 128.184C157.968 129 159.552 129.408 161.304 129.408ZM187.841 111.912C190.241 111.912 192.185 112.644 193.673 114.108C195.161 115.548 195.905 117.636 195.905 120.372V132H192.665V120.84C192.665 118.872 192.173 117.372 191.189 116.34C190.205 115.284 188.861 114.756 187.157 114.756C185.429 114.756 184.049 115.296 183.017 116.376C182.009 117.456 181.505 119.028 181.505 121.092V132H178.229V112.272H181.505V115.08C182.153 114.072 183.029 113.292 184.133 112.74C185.261 112.188 186.497 111.912 187.841 111.912ZM209.392 111.948C211.096 111.948 212.584 112.32 213.856 113.064C215.152 113.808 216.112 114.744 216.736 115.872V112.272H220.048V132.432C220.048 134.232 219.664 135.828 218.896 137.22C218.128 138.636 217.024 139.74 215.584 140.532C214.168 141.324 212.512 141.72 210.616 141.72C208.024 141.72 205.864 141.108 204.136 139.884C202.408 138.66 201.388 136.992 201.076 134.88H204.316C204.676 136.08 205.42 137.04 206.548 137.76C207.676 138.504 209.032 138.876 210.616 138.876C212.416 138.876 213.88 138.312 215.008 137.184C216.16 136.056 216.736 134.472 216.736 132.432V128.292C216.088 129.444 215.128 130.404 213.856 131.172C212.584 131.94 211.096 132.324 209.392 132.324C207.64 132.324 206.044 131.892 204.604 131.028C203.188 130.164 202.072 128.952 201.256 127.392C200.44 125.832 200.032 124.056 200.032 122.064C200.032 120.048 200.44 118.284 201.256 116.772C202.072 115.236 203.188 114.048 204.604 113.208C206.044 112.368 207.64 111.948 209.392 111.948ZM216.736 122.1C216.736 120.612 216.436 119.316 215.836 118.212C215.236 117.108 214.42 116.268 213.388 115.692C212.38 115.092 211.264 114.792 210.04 114.792C208.816 114.792 207.7 115.08 206.692 115.656C205.684 116.232 204.88 117.072 204.28 118.176C203.68 119.28 203.38 120.576 203.38 122.064C203.38 123.576 203.68 124.896 204.28 126.024C204.88 127.128 205.684 127.98 206.692 128.58C207.7 129.156 208.816 129.444 210.04 129.444C211.264 129.444 212.38 129.156 213.388 128.58C214.42 127.98 215.236 127.128 215.836 126.024C216.436 124.896 216.736 123.588 216.736 122.1ZM236.601 132L228.861 123.288V132H225.585V105.36H228.861V121.02L236.457 112.272H241.029L231.741 122.1L241.065 132H236.601ZM245.804 109.068C245.18 109.068 244.652 108.852 244.22 108.42C243.788 107.988 243.572 107.46 243.572 106.836C243.572 106.212 243.788 105.684 244.22 105.252C244.652 104.82 245.18 104.604 245.804 104.604C246.404 104.604 246.908 104.82 247.316 105.252C247.748 105.684 247.964 106.212 247.964 106.836C247.964 107.46 247.748 107.988 247.316 108.42C246.908 108.852 246.404 109.068 245.804 109.068ZM247.388 112.272V132H244.112V112.272H247.388ZM256.247 115.476C256.823 114.348 257.639 113.472 258.695 112.848C259.775 112.224 261.083 111.912 262.619 111.912V115.296H261.755C258.083 115.296 256.247 117.288 256.247 121.272V132H252.971V112.272H256.247V115.476Z" fill="black"/>
</svg>
