<svg width="370" height="237" viewBox="0 0 370 237" fill="none" xmlns="http://www.w3.org/2000/svg">
<rect y="19" width="370" height="218" rx="30" fill="#C8C7D7"/>
<rect x="65" y="4" width="250" height="31" rx="10" fill="#8897AA"/>
<path d="M45.92 112.28C44.08 112.28 42.4267 111.96 40.96 111.32C39.52 110.653 38.3867 109.747 37.56 108.6C36.7333 107.427 36.3067 106.08 36.28 104.56H40.16C40.2933 105.867 40.8267 106.973 41.76 107.88C42.72 108.76 44.1067 109.2 45.92 109.2C47.6533 109.2 49.0133 108.773 50 107.92C51.0133 107.04 51.52 105.92 51.52 104.56C51.52 103.493 51.2267 102.627 50.64 101.96C50.0533 101.293 49.32 100.787 48.44 100.44C47.56 100.093 46.3733 99.72 44.88 99.32C43.04 98.84 41.56 98.36 40.44 97.88C39.3467 97.4 38.4 96.6533 37.6 95.64C36.8267 94.6 36.44 93.2133 36.44 91.48C36.44 89.96 36.8267 88.6133 37.6 87.44C38.3733 86.2667 39.4533 85.36 40.84 84.72C42.2533 84.08 43.8667 83.76 45.68 83.76C48.2933 83.76 50.4267 84.4133 52.08 85.72C53.76 87.0267 54.7067 88.76 54.92 90.92H50.92C50.7867 89.8533 50.2267 88.92 49.24 88.12C48.2533 87.2933 46.9467 86.88 45.32 86.88C43.8 86.88 42.56 87.28 41.6 88.08C40.64 88.8533 40.16 89.9467 40.16 91.36C40.16 92.3733 40.44 93.2 41 93.84C41.5867 94.48 42.2933 94.9733 43.12 95.32C43.9733 95.64 45.16 96.0133 46.68 96.44C48.52 96.9467 50 97.4533 51.12 97.96C52.24 98.44 53.2 99.2 54 100.24C54.8 101.253 55.2 102.64 55.2 104.4C55.2 105.76 54.84 107.04 54.12 108.24C53.4 109.44 52.3333 110.413 50.92 111.16C49.5067 111.907 47.84 112.28 45.92 112.28ZM59.1966 100.96C59.1966 98.72 59.6499 96.76 60.5566 95.08C61.4632 93.3733 62.7032 92.0533 64.2766 91.12C65.8766 90.1867 67.6499 89.72 69.5966 89.72C71.5166 89.72 73.1832 90.1333 74.5966 90.96C76.0099 91.7867 77.0632 92.8267 77.7566 94.08V90.08H81.4366V112H77.7566V107.92C77.0366 109.2 75.9566 110.267 74.5166 111.12C73.1032 111.947 71.4499 112.36 69.5566 112.36C67.6099 112.36 65.8499 111.88 64.2766 110.92C62.7032 109.96 61.4632 108.613 60.5566 106.88C59.6499 105.147 59.1966 103.173 59.1966 100.96ZM77.7566 101C77.7566 99.3467 77.4232 97.9067 76.7566 96.68C76.0899 95.4533 75.1832 94.52 74.0366 93.88C72.9166 93.2133 71.6766 92.88 70.3166 92.88C68.9566 92.88 67.7166 93.2 66.5966 93.84C65.4766 94.48 64.5832 95.4133 63.9166 96.64C63.2499 97.8667 62.9166 99.3067 62.9166 100.96C62.9166 102.64 63.2499 104.107 63.9166 105.36C64.5832 106.587 65.4766 107.533 66.5966 108.2C67.7166 108.84 68.9566 109.16 70.3166 109.16C71.6766 109.16 72.9166 108.84 74.0366 108.2C75.1832 107.533 76.0899 106.587 76.7566 105.36C77.4232 104.107 77.7566 102.653 77.7566 101ZM91.2278 82.4V112H87.5878V82.4H91.2278ZM117.432 100.2C117.432 100.893 117.392 101.627 117.312 102.4H99.7916C99.9249 104.56 100.658 106.253 101.992 107.48C103.352 108.68 104.992 109.28 106.912 109.28C108.485 109.28 109.792 108.92 110.832 108.2C111.898 107.453 112.645 106.467 113.072 105.24H116.992C116.405 107.347 115.232 109.067 113.472 110.4C111.712 111.707 109.525 112.36 106.912 112.36C104.832 112.36 102.965 111.893 101.312 110.96C99.6849 110.027 98.4049 108.707 97.4716 107C96.5382 105.267 96.0716 103.267 96.0716 101C96.0716 98.7333 96.5249 96.7467 97.4316 95.04C98.3382 93.3333 99.6049 92.0267 101.232 91.12C102.885 90.1867 104.778 89.72 106.912 89.72C108.992 89.72 110.832 90.1733 112.432 91.08C114.032 91.9867 115.258 93.24 116.112 94.84C116.992 96.4133 117.432 98.2 117.432 100.2ZM113.672 99.44C113.672 98.0533 113.365 96.8667 112.752 95.88C112.138 94.8667 111.298 94.1067 110.232 93.6C109.192 93.0667 108.032 92.8 106.752 92.8C104.912 92.8 103.338 93.3867 102.032 94.56C100.752 95.7333 100.018 97.36 99.8316 99.44H113.672ZM137.62 84.12L137.18 104.12H134.14L133.7 84.12H137.62ZM135.82 112.24C135.127 112.24 134.54 112 134.06 111.52C133.58 111.04 133.34 110.453 133.34 109.76C133.34 109.067 133.58 108.48 134.06 108C134.54 107.52 135.127 107.28 135.82 107.28C136.487 107.28 137.047 107.52 137.5 108C137.98 108.48 138.22 109.067 138.22 109.76C138.22 110.453 137.98 111.04 137.5 111.52C137.047 112 136.487 112.24 135.82 112.24Z" fill="black"/>
<path d="M55.104 126.908V152H51.828V140.624H39.048V152H35.772V126.908H39.048V137.924H51.828V126.908H55.104ZM62.3898 129.068C61.7658 129.068 61.2378 128.852 60.8058 128.42C60.3738 127.988 60.1578 127.46 60.1578 126.836C60.1578 126.212 60.3738 125.684 60.8058 125.252C61.2378 124.82 61.7658 124.604 62.3898 124.604C62.9898 124.604 63.4938 124.82 63.9018 125.252C64.3338 125.684 64.5498 126.212 64.5498 126.836C64.5498 127.46 64.3338 127.988 63.9018 128.42C63.4938 128.852 62.9898 129.068 62.3898 129.068ZM63.9738 132.272V152H60.6978V132.272H63.9738ZM79.1692 131.912C81.5692 131.912 83.5132 132.644 85.0012 134.108C86.4892 135.548 87.2332 137.636 87.2332 140.372V152H83.9932V140.84C83.9932 138.872 83.5012 137.372 82.5172 136.34C81.5332 135.284 80.1892 134.756 78.4852 134.756C76.7572 134.756 75.3772 135.296 74.3452 136.376C73.3372 137.456 72.8332 139.028 72.8332 141.092V152H69.5572V132.272H72.8332V135.08C73.4812 134.072 74.3572 133.292 75.4612 132.74C76.5892 132.188 77.8252 131.912 79.1692 131.912ZM100.721 131.948C102.425 131.948 103.913 132.32 105.185 133.064C106.481 133.808 107.441 134.744 108.065 135.872V132.272H111.377V152.432C111.377 154.232 110.993 155.828 110.225 157.22C109.457 158.636 108.353 159.74 106.913 160.532C105.497 161.324 103.841 161.72 101.945 161.72C99.3525 161.72 97.1925 161.108 95.4645 159.884C93.7365 158.66 92.7165 156.992 92.4045 154.88H95.6445C96.0045 156.08 96.7485 157.04 97.8765 157.76C99.0045 158.504 100.361 158.876 101.945 158.876C103.745 158.876 105.209 158.312 106.337 157.184C107.489 156.056 108.065 154.472 108.065 152.432V148.292C107.417 149.444 106.457 150.404 105.185 151.172C103.913 151.94 102.425 152.324 100.721 152.324C98.9685 152.324 97.3725 151.892 95.9325 151.028C94.5165 150.164 93.4005 148.952 92.5845 147.392C91.7685 145.832 91.3605 144.056 91.3605 142.064C91.3605 140.048 91.7685 138.284 92.5845 136.772C93.4005 135.236 94.5165 134.048 95.9325 133.208C97.3725 132.368 98.9685 131.948 100.721 131.948ZM108.065 142.1C108.065 140.612 107.765 139.316 107.165 138.212C106.565 137.108 105.749 136.268 104.717 135.692C103.709 135.092 102.593 134.792 101.369 134.792C100.145 134.792 99.0285 135.08 98.0205 135.656C97.0125 136.232 96.2085 137.072 95.6085 138.176C95.0085 139.28 94.7085 140.576 94.7085 142.064C94.7085 143.576 95.0085 144.896 95.6085 146.024C96.2085 147.128 97.0125 147.98 98.0205 148.58C99.0285 149.156 100.145 149.444 101.369 149.444C102.593 149.444 103.709 149.156 104.717 148.58C105.749 147.98 106.565 147.128 107.165 146.024C107.765 144.896 108.065 143.588 108.065 142.1ZM125.049 131.948C126.753 131.948 128.241 132.32 129.513 133.064C130.809 133.808 131.769 134.744 132.393 135.872V132.272H135.705V152.432C135.705 154.232 135.321 155.828 134.553 157.22C133.785 158.636 132.681 159.74 131.241 160.532C129.825 161.324 128.169 161.72 126.273 161.72C123.681 161.72 121.521 161.108 119.793 159.884C118.065 158.66 117.045 156.992 116.733 154.88H119.973C120.333 156.08 121.077 157.04 122.205 157.76C123.333 158.504 124.689 158.876 126.273 158.876C128.073 158.876 129.537 158.312 130.665 157.184C131.817 156.056 132.393 154.472 132.393 152.432V148.292C131.745 149.444 130.785 150.404 129.513 151.172C128.241 151.94 126.753 152.324 125.049 152.324C123.297 152.324 121.701 151.892 120.261 151.028C118.845 150.164 117.729 148.952 116.913 147.392C116.097 145.832 115.689 144.056 115.689 142.064C115.689 140.048 116.097 138.284 116.913 136.772C117.729 135.236 118.845 134.048 120.261 133.208C121.701 132.368 123.297 131.948 125.049 131.948ZM132.393 142.1C132.393 140.612 132.093 139.316 131.493 138.212C130.893 137.108 130.077 136.268 129.045 135.692C128.037 135.092 126.921 134.792 125.697 134.792C124.473 134.792 123.357 135.08 122.349 135.656C121.341 136.232 120.537 137.072 119.937 138.176C119.337 139.28 119.037 140.576 119.037 142.064C119.037 143.576 119.337 144.896 119.937 146.024C120.537 147.128 121.341 147.98 122.349 148.58C123.357 149.156 124.473 149.444 125.697 149.444C126.921 149.444 128.037 149.156 129.045 148.58C130.077 147.98 130.893 147.128 131.493 146.024C132.093 144.896 132.393 143.588 132.393 142.1ZM140.017 142.064C140.017 140.048 140.425 138.284 141.241 136.772C142.057 135.236 143.173 134.048 144.589 133.208C146.029 132.368 147.625 131.948 149.377 131.948C151.105 131.948 152.605 132.32 153.877 133.064C155.149 133.808 156.097 134.744 156.721 135.872V132.272H160.033V152H156.721V148.328C156.073 149.48 155.101 150.44 153.805 151.208C152.533 151.952 151.045 152.324 149.341 152.324C147.589 152.324 146.005 151.892 144.589 151.028C143.173 150.164 142.057 148.952 141.241 147.392C140.425 145.832 140.017 144.056 140.017 142.064ZM156.721 142.1C156.721 140.612 156.421 139.316 155.821 138.212C155.221 137.108 154.405 136.268 153.373 135.692C152.365 135.092 151.249 134.792 150.025 134.792C148.801 134.792 147.685 135.08 146.677 135.656C145.669 136.232 144.865 137.072 144.265 138.176C143.665 139.28 143.365 140.576 143.365 142.064C143.365 143.576 143.665 144.896 144.265 146.024C144.865 147.128 145.669 147.98 146.677 148.58C147.685 149.156 148.801 149.444 150.025 149.444C151.249 149.444 152.365 149.156 153.373 148.58C154.405 147.98 155.221 147.128 155.821 146.024C156.421 144.896 156.721 143.588 156.721 142.1ZM173.835 146.204V143.72L186.471 126.224H190.395V143.36H193.995V146.204H190.395V152H187.155V146.204H173.835ZM187.299 129.644L177.615 143.36H187.299V129.644ZM197.267 138.716C197.267 134.588 197.939 131.372 199.283 129.068C200.627 126.74 202.979 125.576 206.339 125.576C209.675 125.576 212.015 126.74 213.359 129.068C214.703 131.372 215.375 134.588 215.375 138.716C215.375 142.916 214.703 146.18 213.359 148.508C212.015 150.836 209.675 152 206.339 152C202.979 152 200.627 150.836 199.283 148.508C197.939 146.18 197.267 142.916 197.267 138.716ZM212.135 138.716C212.135 136.628 211.991 134.864 211.703 133.424C211.439 131.96 210.875 130.784 210.011 129.896C209.171 129.008 207.947 128.564 206.339 128.564C204.707 128.564 203.459 129.008 202.595 129.896C201.755 130.784 201.191 131.96 200.903 133.424C200.639 134.864 200.507 136.628 200.507 138.716C200.507 140.876 200.639 142.688 200.903 144.152C201.191 145.616 201.755 146.792 202.595 147.68C203.459 148.568 204.707 149.012 206.339 149.012C207.947 149.012 209.171 148.568 210.011 147.68C210.875 146.792 211.439 145.616 211.703 144.152C211.991 142.688 212.135 140.876 212.135 138.716ZM228.75 131.84C228.75 130.208 229.242 128.912 230.226 127.952C231.21 126.968 232.47 126.476 234.006 126.476C235.542 126.476 236.802 126.968 237.786 127.952C238.77 128.912 239.262 130.208 239.262 131.84C239.262 133.496 238.77 134.816 237.786 135.8C236.802 136.76 235.542 137.24 234.006 137.24C232.47 137.24 231.21 136.76 230.226 135.8C229.242 134.816 228.75 133.496 228.75 131.84ZM249.774 126.872L235.194 152H231.954L246.534 126.872H249.774ZM234.006 128.492C233.19 128.492 232.542 128.78 232.062 129.356C231.606 129.908 231.378 130.736 231.378 131.84C231.378 132.944 231.606 133.784 232.062 134.36C232.542 134.936 233.19 135.224 234.006 135.224C234.822 135.224 235.47 134.936 235.95 134.36C236.43 133.76 236.67 132.92 236.67 131.84C236.67 130.736 236.43 129.908 235.95 129.356C235.47 128.78 234.822 128.492 234.006 128.492ZM242.538 147.032C242.538 145.376 243.03 144.068 244.014 143.108C244.998 142.124 246.258 141.632 247.794 141.632C249.33 141.632 250.578 142.124 251.538 143.108C252.522 144.068 253.014 145.376 253.014 147.032C253.014 148.664 252.522 149.972 251.538 150.956C250.578 151.94 249.33 152.432 247.794 152.432C246.258 152.432 244.998 151.952 244.014 150.992C243.03 150.008 242.538 148.688 242.538 147.032ZM247.758 143.684C246.942 143.684 246.294 143.972 245.814 144.548C245.334 145.1 245.094 145.928 245.094 147.032C245.094 148.112 245.334 148.94 245.814 149.516C246.294 150.068 246.942 150.344 247.758 150.344C248.574 150.344 249.222 150.068 249.702 149.516C250.182 148.94 250.422 148.112 250.422 147.032C250.422 145.928 250.182 145.1 249.702 144.548C249.222 143.972 248.574 143.684 247.758 143.684Z" fill="black"/>
<path d="M104.978 10.878L98.14 29H95.41L88.572 10.878H91.094L96.788 26.504L102.482 10.878H104.978ZM113.786 29.234C112.452 29.234 111.238 28.9307 110.146 28.324C109.072 27.7173 108.222 26.8593 107.598 25.75C106.992 24.6233 106.688 23.3233 106.688 21.85C106.688 20.394 107 19.1113 107.624 18.002C108.266 16.8753 109.132 16.0173 110.224 15.428C111.316 14.8213 112.538 14.518 113.89 14.518C115.242 14.518 116.464 14.8213 117.556 15.428C118.648 16.0173 119.506 16.8667 120.13 17.976C120.772 19.0853 121.092 20.3767 121.092 21.85C121.092 23.3233 120.763 24.6233 120.104 25.75C119.463 26.8593 118.588 27.7173 117.478 28.324C116.369 28.9307 115.138 29.234 113.786 29.234ZM113.786 27.154C114.636 27.154 115.433 26.9547 116.178 26.556C116.924 26.1573 117.522 25.5593 117.972 24.762C118.44 23.9647 118.674 22.994 118.674 21.85C118.674 20.706 118.449 19.7353 117.998 18.938C117.548 18.1407 116.958 17.5513 116.23 17.17C115.502 16.7713 114.714 16.572 113.864 16.572C112.998 16.572 112.2 16.7713 111.472 17.17C110.762 17.5513 110.19 18.1407 109.756 18.938C109.323 19.7353 109.106 20.706 109.106 21.85C109.106 23.0113 109.314 23.9907 109.73 24.788C110.164 25.5853 110.736 26.1833 111.446 26.582C112.157 26.9633 112.937 27.154 113.786 27.154ZM136.839 14.752V29H134.473V26.894C134.023 27.622 133.39 28.194 132.575 28.61C131.778 29.0087 130.894 29.208 129.923 29.208C128.814 29.208 127.817 28.9827 126.933 28.532C126.049 28.064 125.347 27.3707 124.827 26.452C124.325 25.5333 124.073 24.4153 124.073 23.098V14.752H126.413V22.786C126.413 24.19 126.769 25.2733 127.479 26.036C128.19 26.7813 129.161 27.154 130.391 27.154C131.657 27.154 132.653 26.764 133.381 25.984C134.109 25.204 134.473 24.0687 134.473 22.578V14.752H136.839ZM139.95 21.85C139.95 20.3767 140.245 19.094 140.834 18.002C141.423 16.8927 142.238 16.0347 143.278 15.428C144.335 14.8213 145.54 14.518 146.892 14.518C148.643 14.518 150.081 14.9427 151.208 15.792C152.352 16.6413 153.106 17.82 153.47 19.328H150.922C150.679 18.4613 150.203 17.7767 149.492 17.274C148.799 16.7713 147.932 16.52 146.892 16.52C145.54 16.52 144.448 16.988 143.616 17.924C142.784 18.8427 142.368 20.1513 142.368 21.85C142.368 23.566 142.784 24.892 143.616 25.828C144.448 26.764 145.54 27.232 146.892 27.232C147.932 27.232 148.799 26.9893 149.492 26.504C150.185 26.0187 150.662 25.3253 150.922 24.424H153.47C153.089 25.88 152.326 27.05 151.182 27.934C150.038 28.8007 148.608 29.234 146.892 29.234C145.54 29.234 144.335 28.9307 143.278 28.324C142.238 27.7173 141.423 26.8593 140.834 25.75C140.245 24.6407 139.95 23.3407 139.95 21.85ZM163.699 14.492C164.774 14.492 165.744 14.726 166.611 15.194C167.478 15.6447 168.154 16.3293 168.639 17.248C169.142 18.1667 169.393 19.2847 169.393 20.602V29H167.053V20.94C167.053 19.5187 166.698 18.4353 165.987 17.69C165.276 16.9273 164.306 16.546 163.075 16.546C161.827 16.546 160.83 16.936 160.085 17.716C159.357 18.496 158.993 19.6313 158.993 21.122V29H156.627V9.76H158.993V16.78C159.461 16.052 160.102 15.4887 160.917 15.09C161.749 14.6913 162.676 14.492 163.699 14.492ZM186.258 21.33C186.258 21.7807 186.232 22.2573 186.18 22.76H174.792C174.879 24.164 175.355 25.2647 176.222 26.062C177.106 26.842 178.172 27.232 179.42 27.232C180.443 27.232 181.292 26.998 181.968 26.53C182.661 26.0447 183.147 25.4033 183.424 24.606H185.972C185.591 25.9753 184.828 27.0933 183.684 27.96C182.54 28.8093 181.119 29.234 179.42 29.234C178.068 29.234 176.855 28.9307 175.78 28.324C174.723 27.7173 173.891 26.8593 173.284 25.75C172.677 24.6233 172.374 23.3233 172.374 21.85C172.374 20.3767 172.669 19.0853 173.258 17.976C173.847 16.8667 174.671 16.0173 175.728 15.428C176.803 14.8213 178.033 14.518 179.42 14.518C180.772 14.518 181.968 14.8127 183.008 15.402C184.048 15.9913 184.845 16.806 185.4 17.846C185.972 18.8687 186.258 20.03 186.258 21.33ZM183.814 20.836C183.814 19.9347 183.615 19.1633 183.216 18.522C182.817 17.8633 182.271 17.3693 181.578 17.04C180.902 16.6933 180.148 16.52 179.316 16.52C178.12 16.52 177.097 16.9013 176.248 17.664C175.416 18.4267 174.939 19.484 174.818 20.836H183.814ZM191.747 17.066C192.163 16.2513 192.752 15.6187 193.515 15.168C194.295 14.7173 195.24 14.492 196.349 14.492V16.936H195.725C193.073 16.936 191.747 18.3747 191.747 21.252V29H189.381V14.752H191.747V17.066ZM219.974 10.878V29H217.608V20.784H208.378V29H206.012V10.878H208.378V18.834H217.608V10.878H219.974ZM237.014 21.33C237.014 21.7807 236.988 22.2573 236.936 22.76H225.548C225.634 24.164 226.111 25.2647 226.978 26.062C227.862 26.842 228.928 27.232 230.176 27.232C231.198 27.232 232.048 26.998 232.724 26.53C233.417 26.0447 233.902 25.4033 234.18 24.606H236.728C236.346 25.9753 235.584 27.0933 234.44 27.96C233.296 28.8093 231.874 29.234 230.176 29.234C228.824 29.234 227.61 28.9307 226.536 28.324C225.478 27.7173 224.646 26.8593 224.04 25.75C223.433 24.6233 223.13 23.3233 223.13 21.85C223.13 20.3767 223.424 19.0853 224.014 17.976C224.603 16.8667 225.426 16.0173 226.484 15.428C227.558 14.8213 228.789 14.518 230.176 14.518C231.528 14.518 232.724 14.8127 233.764 15.402C234.804 15.9913 235.601 16.806 236.156 17.846C236.728 18.8687 237.014 20.03 237.014 21.33ZM234.57 20.836C234.57 19.9347 234.37 19.1633 233.972 18.522C233.573 17.8633 233.027 17.3693 232.334 17.04C231.658 16.6933 230.904 16.52 230.072 16.52C228.876 16.52 227.853 16.9013 227.004 17.664C226.172 18.4267 225.695 19.484 225.574 20.836H234.57ZM257.271 14.492C258.38 14.492 259.368 14.726 260.235 15.194C261.101 15.6447 261.786 16.3293 262.289 17.248C262.791 18.1667 263.043 19.2847 263.043 20.602V29H260.703V20.94C260.703 19.5187 260.347 18.4353 259.637 17.69C258.943 16.9273 257.999 16.546 256.803 16.546C255.572 16.546 254.593 16.9447 253.865 17.742C253.137 18.522 252.773 19.6573 252.773 21.148V29H250.433V20.94C250.433 19.5187 250.077 18.4353 249.367 17.69C248.673 16.9273 247.729 16.546 246.533 16.546C245.302 16.546 244.323 16.9447 243.595 17.742C242.867 18.522 242.503 19.6573 242.503 21.148V29H240.137V14.752H242.503V16.806C242.971 16.0607 243.595 15.4887 244.375 15.09C245.172 14.6913 246.047 14.492 247.001 14.492C248.197 14.492 249.254 14.7607 250.173 15.298C251.091 15.8353 251.776 16.624 252.227 17.664C252.625 16.6587 253.284 15.8787 254.203 15.324C255.121 14.7693 256.144 14.492 257.271 14.492ZM266.04 21.824C266.04 20.368 266.335 19.094 266.924 18.002C267.513 16.8927 268.319 16.0347 269.342 15.428C270.382 14.8213 271.535 14.518 272.8 14.518C274.048 14.518 275.131 14.7867 276.05 15.324C276.969 15.8613 277.653 16.5373 278.104 17.352V14.752H280.496V29H278.104V26.348C277.636 27.18 276.934 27.8733 275.998 28.428C275.079 28.9653 274.005 29.234 272.774 29.234C271.509 29.234 270.365 28.922 269.342 28.298C268.319 27.674 267.513 26.7987 266.924 25.672C266.335 24.5453 266.04 23.2627 266.04 21.824ZM278.104 21.85C278.104 20.7753 277.887 19.8393 277.454 19.042C277.021 18.2447 276.431 17.638 275.686 17.222C274.958 16.7887 274.152 16.572 273.268 16.572C272.384 16.572 271.578 16.78 270.85 17.196C270.122 17.612 269.541 18.2187 269.108 19.016C268.675 19.8133 268.458 20.7493 268.458 21.824C268.458 22.916 268.675 23.8693 269.108 24.684C269.541 25.4813 270.122 26.0967 270.85 26.53C271.578 26.946 272.384 27.154 273.268 27.154C274.152 27.154 274.958 26.946 275.686 26.53C276.431 26.0967 277.021 25.4813 277.454 24.684C277.887 23.8693 278.104 22.9247 278.104 21.85ZM287.38 16.702V25.1C287.38 25.7933 287.528 26.2873 287.822 26.582C288.117 26.8593 288.628 26.998 289.356 26.998H291.098V29H288.966C287.649 29 286.661 28.6967 286.002 28.09C285.344 27.4833 285.014 26.4867 285.014 25.1V16.702H283.168V14.752H285.014V11.164H287.38V14.752H291.098V16.702H287.38Z" fill="white"/>
<path d="M270 187C270 159.386 292.386 137 320 137H370V207C370 223.569 356.569 237 340 237H270V187Z" fill="#F4EDE5"/>
<path d="M192 237C192 209.386 214.386 187 242 187H292V207C292 223.569 278.569 237 262 237H192Z" fill="#F4EDE5"/>
</svg>
